<?xml version="1.0" standalone="no"?>
<!DOCTYPE svg PUBLIC "-//W3C//DTD SVG 1.1//EN" "http://www.w3.org/Graphics/SVG/1.1/DTD/svg11.dtd">
<svg version="1.1" xmlns="http://www.w3.org/2000/svg" viewBox="0 0 535 541" width="535" height="541"><!-- svg-source:excalidraw --><metadata></metadata><defs><style class="style-fonts">
      </style></defs><g stroke-linecap="round" transform="translate(125 239) rotate(0 142.5 142.5)"><path d="M28.77 53.8 C36.04 41.71, 52.33 33.33, 65.17 25.07 C78 16.81, 91.98 8.22, 105.79 4.26 C119.6 0.3, 133.63 0.42, 148.02 1.29 C162.4 2.16, 178.58 4.53, 192.12 9.46 C205.67 14.39, 218.05 21.79, 229.28 30.86 C240.5 39.92, 251.1 51.54, 259.49 63.86 C267.87 76.18, 275.32 90.82, 279.58 104.8 C283.83 118.77, 285.34 133.48, 285.02 147.69 C284.7 161.91, 282.61 176.56, 277.67 190.1 C272.73 203.64, 265.08 216.9, 255.39 228.95 C245.7 241, 232.05 254.29, 219.53 262.42 C207 270.56, 194.2 273.99, 180.26 277.75 C166.31 281.5, 150.25 285.16, 135.84 284.93 C121.43 284.7, 107.43 281.8, 93.8 276.37 C80.17 270.94, 66.02 261.68, 54.06 252.35 C42.1 243.03, 30.4 232.38, 22.06 220.4 C13.71 208.43, 7.66 194.53, 3.99 180.5 C0.32 166.47, -0.59 151.01, 0.04 136.22 C0.67 121.43, -1.67 109.42, 7.77 91.77 C17.22 74.11, 43.59 43.48, 56.71 30.32 C69.82 17.16, 85.1 10.88, 86.45 12.79 M121.7 0.49 C135.17 -3.65, 152.42 -0.91, 166.65 1.45 C180.89 3.82, 193.61 7.55, 207.09 14.69 C220.58 21.84, 237.4 33.14, 247.54 44.32 C257.69 55.49, 261.51 69.07, 267.97 81.72 C274.43 94.36, 283.32 106.04, 286.29 120.18 C289.25 134.32, 288.26 151.92, 285.75 166.56 C283.25 181.21, 278.14 194.49, 271.26 208.05 C264.38 221.62, 255.37 237.23, 244.47 247.95 C233.57 258.67, 220 266.03, 205.85 272.38 C191.69 278.72, 174.65 283.97, 159.55 286.02 C144.44 288.08, 129.35 287.9, 115.22 284.68 C101.09 281.47, 87.3 273.93, 74.77 266.74 C62.25 259.54, 50.58 251.89, 40.08 241.51 C29.57 231.13, 17.94 217.5, 11.75 204.45 C5.55 191.4, 4.51 177.51, 2.93 163.22 C1.34 148.93, -0.24 133.75, 2.23 118.7 C4.7 103.65, 10.42 86.04, 17.75 72.92 C25.08 59.8, 35.63 50.13, 46.23 39.97 C56.83 29.81, 68.2 18.62, 81.35 11.95 C94.51 5.28, 118.33 1.57, 125.18 -0.04 C132.02 -1.66, 122.25 -0.43, 122.43 2.25" stroke="#1e1e1e" stroke-width="4" fill="none"></path></g><g stroke-linecap="round" transform="translate(190 376) rotate(0 75 75)"><path d="M128.47 21.37 C137.04 27.69, 142.31 37.7, 146.01 47.8 C149.71 57.89, 151.5 70.84, 150.68 81.93 C149.86 93.02, 147.01 105.18, 141.09 114.33 C135.18 123.49, 124.45 130.71, 115.18 136.86 C105.91 143, 96.02 149.48, 85.47 151.18 C74.91 152.88, 62.09 150.57, 51.87 147.08 C41.65 143.58, 31.75 137.5, 24.17 130.19 C16.58 122.89, 10.51 113.5, 6.37 103.25 C2.22 93, -1.24 79.75, -0.72 68.69 C-0.2 57.63, 3.89 46.31, 9.47 36.89 C15.06 27.48, 23.63 18.19, 32.78 12.2 C41.93 6.21, 53.28 2.67, 64.39 0.96 C75.5 -0.75, 87.48 -2.62, 99.43 1.93 C111.38 6.47, 129.56 21.65, 136.08 28.25 C142.6 34.85, 139.53 40.24, 138.53 41.53 M15.91 33.37 C21.61 24.55, 30.57 14.34, 40.36 9.21 C50.15 4.07, 64.06 2.72, 74.64 2.56 C85.22 2.41, 94.79 4.55, 103.84 8.27 C112.88 11.99, 121.4 16.68, 128.91 24.89 C136.43 33.09, 146.06 46.99, 148.91 57.5 C151.76 68.01, 148.65 77.44, 146.02 87.97 C143.38 98.49, 139.48 111.77, 133.11 120.65 C126.75 129.53, 116.51 136.27, 107.83 141.24 C99.14 146.21, 91.03 149.6, 80.99 150.49 C70.94 151.38, 57.66 151.33, 47.57 146.6 C37.48 141.87, 28.21 131.02, 20.45 122.11 C12.7 113.21, 4.25 103.64, 1.05 93.18 C-2.15 82.72, -1.04 69.55, 1.25 59.34 C3.53 49.12, 12.29 36.13, 14.75 31.88 C17.22 27.64, 15.26 32.92, 16.03 33.88" stroke="#1e1e1e" stroke-width="2" fill="none"></path></g><g stroke-linecap="round" transform="translate(10 10) rotate(0 257.5 257.5)"><path d="M165.56 15.11 C182.39 4.11, 205.15 3.9, 225.24 1.63 C245.33 -0.64, 265.29 -1.19, 286.09 1.49 C306.88 4.17, 330.16 10.58, 350.01 17.71 C369.85 24.84, 388.53 32.61, 405.14 44.25 C421.74 55.89, 436.25 71.91, 449.63 87.53 C463.01 103.15, 476.03 119.97, 485.39 137.96 C494.75 155.96, 501.13 175.62, 505.8 195.52 C510.47 215.42, 513.11 236.71, 513.4 257.35 C513.68 278, 512.1 299.62, 507.52 319.42 C502.93 339.21, 495.11 358.36, 485.88 376.12 C476.65 393.88, 465.56 410.79, 452.13 425.97 C438.7 441.15, 422.77 454.96, 405.3 467.2 C387.83 479.45, 366.81 492.1, 347.31 499.42 C327.81 506.73, 308.51 508.8, 288.31 511.1 C268.11 513.41, 246.24 515.3, 226.1 513.23 C205.96 511.16, 186.56 506.27, 167.48 498.69 C148.39 491.12, 128.95 479.63, 111.58 467.78 C94.2 455.92, 77.11 442.64, 63.25 427.53 C49.39 412.43, 37.71 395.2, 28.43 377.13 C19.14 359.06, 12.45 339.19, 7.53 319.13 C2.61 299.07, -1.23 277.1, -1.1 256.78 C-0.96 236.47, 3.39 217.24, 8.33 197.24 C13.26 177.24, 19.12 154.99, 28.53 136.81 C37.93 118.63, 51.11 103.36, 64.77 88.16 C78.44 72.96, 88.75 59.15, 110.52 45.59 C132.29 32.03, 175.92 13.32, 195.37 6.8 C214.83 0.29, 226.19 2.48, 227.24 6.5 M96.15 56.42 C108.97 40.56, 134.91 28.97, 154.57 20.15 C174.23 11.33, 193.84 7.02, 214.09 3.51 C234.34 0, 255.56 -2.73, 276.08 -0.88 C296.59 0.97, 317.91 7.98, 337.18 14.62 C356.45 21.26, 375.06 28.43, 391.68 38.98 C408.29 49.52, 422.92 63.35, 436.87 77.89 C450.82 92.43, 464.44 109.29, 475.38 126.21 C486.33 143.13, 496.01 160.09, 502.55 179.4 C509.09 198.71, 513.7 221.39, 514.63 242.07 C515.55 262.75, 511.56 283.14, 508.1 303.49 C504.63 323.84, 501.8 345.19, 493.82 364.16 C485.84 383.13, 472.97 401.76, 460.21 417.33 C447.46 432.9, 433.04 445.08, 417.3 457.58 C401.57 470.08, 384.51 483.87, 365.81 492.33 C347.12 500.79, 325.38 504.87, 305.14 508.33 C284.9 511.79, 265.19 514.26, 244.36 513.1 C223.54 511.94, 199.93 507.15, 180.17 501.36 C160.41 495.57, 142.99 488.89, 125.81 478.38 C108.62 467.86, 92.16 452.45, 77.06 438.26 C61.95 424.07, 46.54 410.63, 35.17 393.23 C23.81 375.82, 14.51 354.35, 8.89 333.83 C3.26 313.31, 1.81 290.78, 1.43 270.11 C1.05 249.43, 3.52 229.56, 6.6 209.76 C9.68 189.96, 12.22 169.9, 19.89 151.28 C27.57 132.67, 39.08 113.69, 52.65 98.09 C66.22 82.49, 93.47 64.7, 101.31 57.67 C109.15 50.64, 97.64 53.13, 99.67 55.89" stroke="#1e1e1e" stroke-width="4" fill="none"></path></g><g stroke-linecap="round" transform="translate(256 518) rotate(0 6 6.5)"><path d="M7.02 0.08 C8.1 0.08, 9.17 0.76, 10.06 1.76 C10.95 2.76, 12.28 4.7, 12.36 6.09 C12.44 7.48, 11.42 8.99, 10.56 10.12 C9.71 11.24, 8.5 12.44, 7.24 12.82 C5.99 13.2, 4.11 13.11, 3.04 12.4 C1.97 11.69, 1.3 9.84, 0.83 8.57 C0.36 7.3, -0.12 6, 0.23 4.79 C0.58 3.59, 1.75 2.18, 2.94 1.34 C4.13 0.5, 6.74 -0.15, 7.38 -0.26 C8.02 -0.37, 6.89 0.57, 6.79 0.7 M6.84 -0.29 C7.95 -0.24, 9.61 1.34, 10.42 2.38 C11.24 3.41, 11.69 4.57, 11.73 5.9 C11.78 7.23, 11.41 9.21, 10.67 10.36 C9.94 11.5, 8.61 12.54, 7.33 12.75 C6.05 12.97, 4.24 12.26, 2.99 11.63 C1.74 10.99, 0.37 10.11, -0.16 8.94 C-0.69 7.77, -0.72 5.82, -0.19 4.6 C0.34 3.38, 1.76 2.42, 3.02 1.62 C4.28 0.82, 6.89 0, 7.39 -0.19 C7.9 -0.38, 6.12 0.39, 6.05 0.46" stroke="none" stroke-width="0" fill="#1e1e1e"></path><path d="M6.81 0.42 C7.98 0.54, 9.63 1.08, 10.58 2.03 C11.52 2.98, 12.51 4.75, 12.46 6.11 C12.42 7.48, 11.2 9.13, 10.28 10.21 C9.36 11.3, 8.05 12.22, 6.94 12.64 C5.83 13.06, 4.63 13.3, 3.62 12.71 C2.61 12.13, 1.44 10.55, 0.89 9.11 C0.33 7.66, -0.01 5.33, 0.27 4.03 C0.55 2.74, 1.36 2.02, 2.55 1.34 C3.75 0.66, 6.59 0.04, 7.44 -0.07 C8.28 -0.18, 7.64 0.52, 7.62 0.7 M7.4 -0.4 C8.61 -0.22, 9.41 1.23, 10.12 2.25 C10.83 3.28, 11.58 4.24, 11.66 5.75 C11.74 7.26, 11.39 10.11, 10.59 11.29 C9.8 12.48, 8.17 12.7, 6.9 12.87 C5.62 13.03, 4.05 12.92, 2.92 12.29 C1.79 11.67, 0.45 10.48, 0.1 9.11 C-0.25 7.74, 0.45 5.37, 0.81 4.06 C1.17 2.75, 1.28 1.87, 2.28 1.24 C3.28 0.6, 5.99 0.32, 6.81 0.25 C7.63 0.18, 7.28 0.83, 7.2 0.81" stroke="#1e1e1e" stroke-width="2" fill="none"></path></g></svg>